# xmcd
#
# Track frame offsets: 
#        150
#        12610
#        22180
#        35172
#        48312
#        59855
#        71610
#        84570
#        96212
#        107440
#        120837
#        134570
#        145680
#        156325
#        168622
#        180487
#        191795
#        201737
#        213387
#        224140
#        236320
#        249910
#
# Disc length: 3527 seconds
#
# Revision: 0
# Processed by: cddbd v1.5.2PL0 Copyright (c) Steve Scherf et al.
# Submitted via: ExactAudioCopy v0.99pb4
#
DISCID=540dc516
DTITLE=The Spaniels - Goodnite, It's Time To Go
DYEAR=1960
DGENRE=Pop
TTITLE0=Goodnite, It's Time To Go
TTITLE1=Bounce
TTITLE2=The Bells Ring Out
TTITLE3=Please Don't Tease
TTITLE4=A Lovery Way To Spend An Evening
TTITLE5=Do You Really
TTITLE6=You Gave Me Peace Of Mind
TTITLE7=Baby It's You
TTITLE8=I Need Your Kisses
TTITLE9=Let's Make Up
TTITLE10=Play It Cool
TTITLE11=You Painted Pictures
TTITLE12=House Cleaning
TTITLE13=Do-Wah
TTITLE14=You Don't Move Me
TTITLE15=Jesse Mae
TTITLE16=Hey Sister Lizzie
TTITLE17=I Like It Like That
TTITLE18=Tina
TTITLE19=You're Gonna Cry
TTITLE20=Since I Fell For You
TTITLE21=False Love
EXTD=
EXTT0=
EXTT1=
EXTT2=
EXTT3=
EXTT4=
EXTT5=
EXTT6=
EXTT7=
EXTT8=
EXTT9=
EXTT10=
EXTT11=
EXTT12=
EXTT13=
EXTT14=
EXTT15=
EXTT16=
EXTT17=
EXTT18=
EXTT19=
EXTT20=
EXTT21=
PLAYORDER=
